<svg width="24" height="24" viewBox="0 0 24 24" fill="none" xmlns="http://www.w3.org/2000/svg">
<path fill-rule="evenodd" clip-rule="evenodd" d="M7.79516 2.92425C4.37314 4.51239 2.00003 7.979 2.00003 11.9999C2.00003 12.4458 2.02922 12.8849 2.08579 13.3154C2.10824 13.2462 2.13139 13.1769 2.15526 13.1075C2.61226 11.7799 3.37763 10.3157 4.64588 9.38271C5.31248 8.89233 5.99453 8.58328 6.52922 8.34101C6.59269 8.31224 6.65409 8.28443 6.71314 8.25735C7.31359 7.98208 7.64097 7.79572 7.8589 7.53784C8.04467 7.31803 8.23773 6.93546 8.24727 6.08289C8.25541 5.35509 8.12836 4.34608 7.79516 2.92425ZM9.69467 2.26691C10.4348 2.09228 11.2066 1.99988 12 1.99988C12.5523 1.99988 13 1.55216 13 0.999878C13 0.447593 12.5523 -0.00012207 12 -0.00012207C5.37261 -0.000121772 3.02792e-05 5.37246 3.05176e-05 11.9999C3.08156e-05 18.6273 5.37261 23.9999 12 23.9999C17.8834 23.9999 22.7761 19.7669 23.8022 14.1805C23.902 13.6373 23.5425 13.1161 22.9993 13.0163C22.4561 12.9166 21.9349 13.276 21.8351 13.8192C21.6127 15.0299 21.1721 16.1644 20.5556 17.1802C19.6364 16.6342 18.1842 16.1045 16.5598 16.4369C16.0478 16.5417 15.6672 16.6656 15.4038 16.7514C15.3522 16.7682 15.3051 16.7835 15.2624 16.797C15.0054 16.8778 14.9624 16.8713 14.918 16.8645L14.9174 16.8644C14.8271 16.8507 14.6243 16.7903 14.1334 16.5116C13.6547 16.2397 12.992 15.8144 11.9987 15.1586C11.0485 14.5312 10.0576 14.2889 9.12433 14.6488C8.24678 14.9871 7.69404 15.7597 7.34105 16.5063C6.81968 17.6091 6.5544 19.0381 6.43236 20.3078C5.19049 19.4739 4.14589 18.3689 3.38329 17.0776C3.4278 16.9714 3.45461 16.8557 3.45987 16.734C3.48929 16.0522 3.65267 14.9022 4.04635 13.7585C4.44583 12.598 5.03617 11.5785 5.83104 10.9937C6.31964 10.6343 6.81175 10.4102 7.35918 10.161C7.42093 10.1328 7.48339 10.1044 7.54662 10.0754C8.12643 9.80959 8.84645 9.46779 9.38647 8.82878C9.95866 8.15171 10.2341 7.26866 10.2471 6.10525C10.2582 5.11691 10.0812 3.87058 9.69467 2.26691ZM8.36368 21.3182C9.4907 21.7583 10.7172 21.9999 12 21.9999C14.9011 21.9999 17.5144 20.7641 19.3413 18.7903C18.7476 18.4808 17.8755 18.2091 16.9607 18.3963C16.5679 18.4767 16.3011 18.5632 16.0418 18.6472C15.9822 18.6666 15.9231 18.6857 15.8629 18.7047C15.5379 18.807 15.1312 18.9201 14.6163 18.8416C14.1471 18.7702 13.6799 18.554 13.1459 18.2507C12.5997 17.9406 11.8826 17.4785 10.8967 16.8276C10.2635 16.4095 9.96174 16.4694 9.84386 16.5148C9.67028 16.5818 9.41342 16.8022 9.14915 17.3612C8.66435 18.3866 8.43126 19.9622 8.36368 21.3182ZM18.5 1.99998C16.6268 1.99998 15 3.63952 15 5.79998C15 6.27398 15.1572 6.91485 15.4676 7.6578C15.772 8.38632 16.1956 9.14626 16.6588 9.83732C17.1234 10.5305 17.6089 11.1261 18.0243 11.5356C18.2183 11.7269 18.3792 11.8598 18.5 11.9419C18.6208 11.8598 18.7817 11.7269 18.9757 11.5356C19.3911 11.1261 19.8766 10.5305 20.3412 9.83732C20.8044 9.14626 21.228 8.38632 21.5324 7.6578C21.8428 6.91485 22 6.27398 22 5.79998C22 3.63952 20.3732 1.99998 18.5 1.99998ZM18.6304 12.0178C18.6304 12.0178 18.6297 12.0175 18.6284 12.017C18.6297 12.0175 18.6304 12.0177 18.6304 12.0178ZM13 5.79998C13 2.6585 15.4026 -2.43187e-05 18.5 -2.43187e-05C21.5974 -2.43187e-05 24 2.6585 24 5.79998C24 6.65146 23.7353 7.57333 23.3778 8.42891C23.0142 9.29891 22.5237 10.1733 22.0025 10.9509C21.4828 11.7263 20.9136 12.4336 20.3798 12.9599C20.1143 13.2216 19.8366 13.4594 19.5602 13.6385C19.314 13.7981 18.9363 14 18.5 14C18.0637 14 17.686 13.7981 17.4398 13.6385C17.1634 13.4594 16.8857 13.2216 16.6202 12.9599C16.0864 12.4336 15.5172 11.7263 14.9975 10.9509C14.4763 10.1733 13.9858 9.29891 13.6222 8.42891C13.2647 7.57333 13 6.65146 13 5.79998ZM17 5.49998C17 4.67155 17.6716 3.99998 18.5 3.99998C19.3284 3.99998 20 4.67155 20 5.49998C20 6.3284 19.3284 6.99998 18.5 6.99998C17.6716 6.99998 17 6.3284 17 5.49998Z" fill="#323539"/>
</svg>
