<svg width="38" height="38" viewBox="0 0 38 38" fill="none" xmlns="http://www.w3.org/2000/svg">
    <g clip-path="url(#clip0_2186_100041)">
        <rect width="38" height="38" rx="19" fill="url(#paint0_linear_2186_100041)"></rect>
        <path d="M19.6808 14.0266C17.8329 14.7953 14.1394 16.3862 8.60052 18.7994C7.7011 19.1571 7.22994 19.507 7.18705 19.8491C7.11455 20.4274 7.83866 20.6551 8.82469 20.9651L8.85288 20.974C8.97826 21.0135 9.10776 21.0543 9.24027 21.0973C10.2104 21.4127 11.5153 21.7816 12.1937 21.7962C12.8091 21.8095 13.4959 21.5558 14.2542 21.0351C19.4294 17.5417 22.1008 15.776 22.2685 15.738C22.3869 15.7111 22.5508 15.6773 22.6619 15.7761C22.7729 15.8748 22.7622 16.0618 22.7503 16.112C22.6786 16.4177 19.8362 19.0603 18.3652 20.4278C17.9067 20.8541 17.5815 21.1565 17.515 21.2255C17.3673 21.379 17.2169 21.524 17.0723 21.6635L17.0683 21.6673C16.1671 22.5361 15.4912 23.1876 17.1057 24.2516C17.8817 24.7629 18.5025 25.1856 19.1219 25.6074C19.7983 26.0682 20.473 26.5276 21.3459 27.0999C21.5662 27.2443 21.7766 27.3942 21.9817 27.5402L21.9876 27.5445C22.7748 28.1057 23.4821 28.6099 24.3558 28.5294C24.8636 28.4827 25.388 28.0054 25.6543 26.5816C26.2836 23.2167 27.5209 15.926 27.8068 12.9216C27.832 12.6583 27.8005 12.3215 27.7751 12.1736C27.7498 12.0257 27.6969 11.815 27.5047 11.659C27.277 11.4743 26.9257 11.4354 26.7685 11.4381C26.0538 11.4507 24.9575 11.832 19.6808 14.0266Z" fill="white"></path>
    </g>
    <defs>
        <linearGradient id="paint0_linear_2186_100041" x1="19" y1="38" x2="19" y2="0" gradientUnits="userSpaceOnUse">
            <stop stop-color="#1D93D2"></stop>
            <stop offset="1" stop-color="#38B0E3"></stop>
        </linearGradient>
        <clipPath id="clip0_2186_100041">
            <rect width="38" height="38" rx="19" fill="white"></rect>
        </clipPath>
    </defs>
</svg>