<?xml version="1.0" encoding="UTF-8"?>
<svg xmlns="http://www.w3.org/2000/svg" width="230" height="230" viewBox="0 0 230 230" fill="none">
  <path d="M97.8909 62.0932C87.9612 58.2184 77.8181 54.9145 67.5112 52.1976C75.2415 57.0417 108.833 78.4569 118.84 85.9824C122.621 86.7004 126.773 88.3637 129.219 89.9709C131.664 91.5781 130.113 95.1347 129.05 98.4192C127.987 101.704 125.482 106.553 123.44 105.992C121.399 105.431 113.433 103.499 111.27 103.283C110.008 103.157 106.712 103.061 102.94 102.98C101.952 105.187 100.581 107.978 99.341 110.553L99.5009 110.881C107.324 116.471 111.046 125.293 113.062 134.602L113.267 135.421C113.435 135.233 113.604 135.043 113.766 134.86C115.11 138.394 116.456 141.968 117.55 145.611C118.075 147.364 118.336 148.416 118.193 149.258L118.524 149.123C119.309 148.809 121.073 149.835 121.758 150.467C122.739 151.375 123.968 153.658 125.137 156.287C125.684 154.155 126.764 152.422 128.91 150.75C127.087 143.656 138.306 132.193 144.101 128.827C144.253 128.931 144.415 129.051 144.586 129.18L144.609 129.13C146.359 122.547 149.722 116.508 152.415 110.236C153.949 106.654 156.061 103.577 157.901 100.209C158.779 98.6071 158.482 97.9284 157.551 96.2034C156.471 94.2007 155.683 92.6496 154.387 90.7731C152.505 88.0496 150.648 85.8365 149.386 83.8619C148.123 81.8873 152.642 82.3641 157.38 83.1074C160.83 83.6487 168.223 85.3176 173.768 86.5041C171.944 84.4729 170.869 81.8788 170.722 79.1525C170.672 78.398 171.668 78.081 172.161 78.5579C173.698 80.0501 175.622 80.8859 177.631 81.5086C175.88 76.2158 172.055 71.4335 167.917 67.7984C164.069 64.4157 159.907 61.3724 155.856 58.2253L142.783 48.0324C140.494 46.2485 137.692 47.9006 138.096 50.7615C138.701 55.1176 138.802 59.5289 138.396 63.908C123.489 51.6705 106.873 41.6786 89.0751 34.2492C86.705 33.2591 84.7921 36.437 85.9056 38.3696C90.3402 46.0477 94.3415 53.9679 97.8909 62.0932Z" fill="#FDC305"></path>
  <path d="M97.3946 177.643C97.4872 176.418 97.9892 172.233 99.7619 171.776C97.6779 169.201 96.1941 167.731 96.4662 164.037C96.5952 162.264 97.187 158.352 99.2402 157.025C98.5475 156.393 98.0872 155.546 97.9331 154.621C97.4872 152.478 96.1548 145.55 96.1548 145.55C96.6259 145.537 97.095 145.484 97.5573 145.393L97.1814 145.27C97.2347 144.002 96.4886 142.535 96.0258 141.376C94.528 141.289 91.6558 140.613 89.7317 139.747C89.425 140.715 88.9729 141.632 88.3909 142.465C87.2465 143.948 85.4823 143.766 83.718 143.359C81.4096 142.826 81.1011 141.618 81.4741 139.379C81.7041 137.999 82.223 134.05 82.223 134.05L82.7335 134.002C78.9862 133.54 75.2837 130.033 76.6105 125.389C75.3791 123.986 74.7929 122.141 75.6231 119.756C75.5112 119.54 75.4174 119.315 75.3426 119.083C74.6835 117.038 75.5137 114.382 76.6076 113.193L77.2079 113.611C76.661 113.013 76.2614 112.295 76.0411 111.516C75.323 108.119 77.9315 105.796 80.9103 105.437C83.4531 105.151 86.0262 105.304 88.5172 105.889L88.3965 106.24L88.677 106.119C89.0922 104.792 89.4876 103.595 89.7822 102.722C89.2212 102.722 88.7079 102.691 88.2956 102.675C84.7081 102.532 69.803 103.488 65.6911 103.712C59.6409 104.046 53.7815 104.672 47.81 105.578C47.709 105.595 47.6108 105.614 47.5098 105.628C42.5978 109.534 38.2451 114.095 34.5737 119.184C33.2302 121.047 35.0786 123.274 36.9944 123.406L71.4607 125.759C63.0039 133.053 55.3185 141.196 48.5252 150.06C47.1985 151.788 49.0104 154.321 50.9486 154.268C64.9132 153.981 78.8515 153.14 92.7637 151.743C86.9472 159.747 82.2594 168.513 78.8319 177.795C78.0213 179.988 80.383 181.584 82.2819 181.245C87.283 180.353 92.3234 179.447 97.3469 178.418C97.3637 178.148 97.375 177.896 97.3946 177.643Z" fill="#FDC305"></path>
  <path d="M95.6721 136.005C95.6721 136.005 94.3341 135.133 93.776 134.238C92.9962 132.99 92.3735 131.935 92.0341 130.491C91.5096 128.269 91.7537 124.196 93.0523 122.3C90.34 121.655 84.0374 119.406 85.0304 115.717C85.9139 112.436 91.7368 113.075 94.1939 113.67C95.3551 113.95 97.8403 115.142 99.2427 116.839" stroke="#252525" stroke-width="1.96341" stroke-linecap="round" stroke-linejoin="round"></path>
  <path d="M88.5226 105.884C86.0316 105.299 83.4586 105.146 80.9158 105.432C77.937 105.791 75.3285 108.114 76.0465 111.511C76.557 113.923 81.3421 118.054 84.924 116.371" stroke="#252525" stroke-width="1.96341" stroke-linecap="round" stroke-linejoin="round"></path>
  <path d="M113.079 134.603C111.062 125.293 107.34 116.472 99.5176 110.882" stroke="#252525" stroke-width="1.96341" stroke-linecap="round" stroke-linejoin="round"></path>
  <path d="M76.6131 113.188C75.5192 114.382 74.6889 117.039 75.3481 119.078C75.9371 120.912 77.7294 122.27 79.4208 123.005C81.53 123.933 88.0037 124.92 88.3964 121.322" stroke="#252525" stroke-width="1.96341" stroke-linecap="round" stroke-linejoin="round"></path>
  <path d="M75.6259 119.768C73.9037 124.704 78.254 127.355 81.8499 128.443C84.0489 129.108 91.019 128.645 91.8886 126.039" stroke="#252525" stroke-width="1.96341" stroke-linecap="round" stroke-linejoin="round"></path>
  <path d="M76.613 125.377C75.2386 130.199 79.2721 133.792 83.1596 134.03C83.7997 134.074 84.4379 133.921 84.9885 133.591C85.539 133.262 85.9754 132.772 86.239 132.187C86.5026 131.602 86.5808 130.95 86.463 130.319C86.3452 129.689 86.0372 129.109 85.5802 128.659" stroke="#252525" stroke-width="1.96341" stroke-linecap="round" stroke-linejoin="round"></path>
  <path d="M82.2261 108.798C83.6762 109.078 85.2694 109.415 86.5316 110.153C87.7236 110.851 88.1864 112.298 88.3968 113.187" stroke="#252525" stroke-width="1.96341" stroke-linecap="round" stroke-linejoin="round"></path>
  <path d="M97.1842 145.261C97.2375 143.993 96.4914 142.526 96.0286 141.368C94.1157 141.256 91.2603 141.034 89.7036 139.825" stroke="#252525" stroke-width="1.96341" stroke-linecap="round" stroke-linejoin="round"></path>
  <path d="M92.5086 133.107C92.2478 134.588 91.1959 135.912 90.6153 137.315C89.9421 138.925 89.4597 141.084 88.3939 142.464C87.2495 143.948 85.4852 143.766 83.7209 143.359C81.4125 142.826 81.104 141.617 81.477 139.379C81.707 137.999 82.2259 134.05 82.2259 134.05" stroke="#252525" stroke-width="1.96341" stroke-linecap="round" stroke-linejoin="round"></path>
  <path d="M87.3418 110.857C87.9819 108.258 88.7704 105.697 89.7035 103.188" stroke="#252525" stroke-width="1.96341" stroke-linecap="round" stroke-linejoin="round"></path>
  <path d="M97.3721 114.784C99.069 110.98 101.42 106.594 102.794 103.188" stroke="#252525" stroke-width="1.96341" stroke-linecap="round" stroke-linejoin="round"></path>
  <path d="M118.846 85.983C108.51 78.2163 73.0619 55.6539 66.8491 51.7831C62.5857 49.1269 54.6731 44.5746 52.3788 43.3685C50.233 42.2466 45.8294 42.2466 43.7986 43.3096C39.4847 45.5703 36.3994 49.5589 34.2424 53.9289C32.2297 57.9222 30.5413 62.0709 29.1936 66.3348C27.4602 71.8773 26.3888 76.4605 25.954 82.3507C25.6399 86.5384 25.2584 90.6447 26.083 94.8128C26.8291 98.5629 27.7828 102.692 29.6845 106.032C31.3842 109.025 33.1822 108.966 36.1357 108.276C40.0625 107.381 43.7818 106.17 47.8264 105.555C53.798 104.649 59.6574 104.024 65.7075 103.69C69.8195 103.466 84.7246 102.509 88.312 102.652C92.8672 102.835 108.199 102.955 111.295 103.267C113.458 103.483 121.421 105.421 123.466 105.976C125.51 106.532 128.009 101.69 129.075 98.403C130.141 95.1157 131.704 91.5619 129.244 89.9547C126.784 88.3475 122.635 86.6842 118.866 85.9662C118.585 89.893 116.184 98.6835 113.472 103.547" stroke="#252525" stroke-width="1.96341" stroke-linecap="round" stroke-linejoin="round"></path>
  <path d="M53.24 48.0723C54.5331 51.8336 55.7644 58.4503 55.9523 62.408C56.1802 66.9029 55.8979 71.4092 55.1109 75.8406C54.1067 81.125 51.6973 88.1007 48.5643 94.493C45.4312 100.885 39.7485 107.208 37.3784 107.987" stroke="#252525" stroke-width="1.96341" stroke-linecap="round" stroke-linejoin="round"></path>
  <path d="M52.6145 84.8183C52.6145 84.8183 35.3645 77.5257 34.7278 75.8876C34.2621 74.6787 35.2887 69.5879 36.3097 68.7744C37.513 67.832 45.4396 68.9343 47.3693 69.2513C48.9232 69.5065 55.8148 70.5191 55.8148 70.5191" stroke="#252525" stroke-width="1.96341" stroke-linecap="round" stroke-linejoin="round"></path>
  <path d="M36.8985 68.542C39.0302 70.6513 37.6923 74.9932 34.7275 75.888" stroke="#252525" stroke-width="1.96341" stroke-linecap="round" stroke-linejoin="round"></path>
  <path d="M96.1548 145.542C99.4926 145.458 102.746 143.267 105.515 141.523C108.544 139.612 111.523 137.531 113.783 134.853C115.127 138.387 116.473 141.96 117.567 145.604C118.838 149.847 118.563 150.019 114.762 152.658C110.792 155.373 106.261 157.162 101.506 157.892C101.506 157.892 98.6315 157.962 97.9387 154.613C97.4871 152.47 96.1548 145.542 96.1548 145.542Z" stroke="#252525" stroke-width="1.96341" stroke-linecap="round" stroke-linejoin="round"></path>
  <path d="M99.2405 157.017C97.1874 158.352 96.5955 162.265 96.4665 164.029C96.186 167.723 97.6782 169.193 99.7622 171.767C97.9896 172.225 97.4875 176.41 97.3949 177.635C97.1574 180.833 97.346 184.049 97.9559 187.197C98.3963 189.455 99.9193 193.873 101.942 195.929" stroke="#252525" stroke-width="1.96341" stroke-linecap="round" stroke-linejoin="round"></path>
  <path d="M118.541 149.104C119.326 148.79 121.09 149.817 121.775 150.448C124.386 152.86 128.739 164.991 129.067 167.454C129.23 168.693 129.067 173.826 126.621 171.358C125.337 170.065 124.571 165.698 124.579 164.065C124.605 157.614 124.672 154.063 128.927 150.742C127.104 143.649 138.323 132.185 144.118 128.819C145.428 129.731 147.602 131.717 149.635 132.746C152.763 134.328 157.363 135.251 160.855 135.456C164.919 135.697 172.473 136.017 179.802 135.018C180.377 136.738 180.256 140.033 180.842 141.725C181.3 143.037 185.005 149.811 186.155 152.753C187.47 156.119 195.473 172.822 196.286 174.769C197.907 178.654 199.86 182.104 201.686 185.834" stroke="#252525" stroke-width="1.96341" stroke-linecap="round" stroke-linejoin="round"></path>
  <path d="M150.665 147.693C149.299 152.462 149.262 160.066 145.428 163.998C143.955 165.507 142.205 165.681 142.432 168.486C142.64 171.044 143.338 175.849 140.188 177.411" stroke="#252525" stroke-width="1.96341" stroke-linecap="round" stroke-linejoin="round"></path>
  <path d="M154.03 173.125C156.835 173.125 159.64 173.31 162.467 173.31C164.097 173.31 172.472 173.125 172.472 173.125" stroke="#252525" stroke-width="1.96341" stroke-linecap="round" stroke-linejoin="round"></path>
  <path d="M168.055 170.881V175.554" stroke="#252525" stroke-width="1.96341" stroke-linecap="round" stroke-linejoin="round"></path>
  <path d="M164.689 170.319C165.41 173.45 165.026 176.695 164.689 179.856" stroke="#252525" stroke-width="1.96341" stroke-linecap="round" stroke-linejoin="round"></path>
  <path d="M142.623 133.296C141.888 135.803 138.486 142.297 140.23 144.701C142.544 147.892 150.171 138.85 152.502 138.179C152.578 142.106 153.96 147.971 158.437 148.723C161.205 149.188 164.392 147.935 166.852 146.759C169.25 145.557 171.56 144.187 173.766 142.659" stroke="#252525" stroke-width="1.96341" stroke-linecap="round" stroke-linejoin="round"></path>
  <path d="M144.626 129.11C146.376 122.527 149.739 116.489 152.432 110.217C153.966 106.635 156.078 103.558 157.918 100.189C158.796 98.5878 158.499 97.909 157.568 96.184C156.488 94.1813 155.7 92.6302 154.404 90.7538C152.522 88.0302 150.665 85.8172 149.403 83.8425C148.14 81.8679 152.659 82.3447 157.397 83.088C162.134 83.8313 174.302 86.7007 178.913 87.5225C183.14 88.277 188.567 90.0469 191.254 93.6147C193.285 96.3046 192.682 100.992 191.254 103.9C195.293 104.526 206.384 104.5 204.126 111.151C202.263 116.632 192.856 114.034 188.853 112.94C186.727 116.418 184.966 120.544 183.196 124.306C181.687 127.517 179.805 131.974 178.989 135.11" stroke="#252525" stroke-width="1.96341" stroke-linecap="round" stroke-linejoin="round"></path>
  <path d="M165.833 104.975C166.902 106.582 166.394 108.989 165.724 110.565C165.118 111.993 163.556 114.89 161.674 114.854C159.682 114.817 159.904 111.982 160.17 110.473C160.473 108.762 161.11 107.247 162.167 105.53C163.225 103.814 165.025 103.76 165.833 104.975Z" stroke="#252525" stroke-width="1.96341" stroke-linecap="round" stroke-linejoin="round"></path>
  <path d="M167.11 93.2305L168.437 95.7577" stroke="#252525" stroke-width="1.96341" stroke-linecap="round" stroke-linejoin="round"></path>
  <path d="M174.394 99.2078L177.875 99.0283" stroke="#252525" stroke-width="1.96341" stroke-linecap="round" stroke-linejoin="round"></path>
  <path d="M194.982 109.359C196.404 109.294 197.478 109.69 198.909 109.639" stroke="#252525" stroke-width="1.96341" stroke-linecap="round" stroke-linejoin="round"></path>
  <path d="M195.417 93.4554C195.891 92.7105 196.197 91.871 196.313 90.9956C196.43 90.1202 196.353 89.2299 196.09 88.387C195.296 85.8626 193.069 84.6032 190.581 84.1573C189.027 83.8768 187.448 83.7954 185.897 83.5177C184.197 83.2148 182.531 82.7969 180.848 82.3649C177.763 81.5712 174.523 80.8195 172.173 78.5391C171.679 78.0623 170.683 78.3792 170.734 79.1337C171.429 89.3659 182.514 92.0362 190.531 95.2113C189.634 95.978 188.991 96.9978 188.685 98.1368C187.908 100.779 188.94 103.542 188.332 106.204C188.18 106.871 188.923 107.586 189.569 107.154C190.969 106.266 192.296 105.267 193.537 104.167C195.292 104.324 197.037 104.578 198.763 104.93C199.739 101.026 198.985 95.6657 195.417 93.4554Z" fill="#252525"></path>
  <path d="M186.326 117.632C186.369 117.728 186.432 117.815 186.51 117.887C186.587 117.959 186.678 118.015 186.778 118.052C186.877 118.088 186.983 118.105 187.089 118.1C187.195 118.096 187.299 118.07 187.394 118.025C187.487 118.034 187.581 118.024 187.67 117.997C187.759 117.969 187.842 117.924 187.913 117.865C189.551 116.628 191.24 115.34 192.799 113.918C191.273 113.601 189.885 113.22 188.856 112.939C187.958 114.412 187.125 116.002 186.326 117.632Z" fill="#252525"></path>
</svg>
